<?xml version="1.0" encoding="UTF-8" standalone="no"?>
<!DOCTYPE svg PUBLIC "-//W3C//DTD SVG 1.1//EN"
 "http://www.w3.org/Graphics/SVG/1.1/DTD/svg11.dtd">
<!-- Generated by graphviz version 5.0.0 (20220707.1540)
 -->
<!-- Title: dependencies Pages: 1 -->
<svg width="310pt" height="174pt"
 viewBox="0.00 0.00 310.00 173.80" xmlns="http://www.w3.org/2000/svg" xmlns:xlink="http://www.w3.org/1999/xlink">
<g id="graph0" class="graph" transform="scale(1 1) rotate(0) translate(4 169.8)">
<title>dependencies</title>
<polygon fill="white" stroke="transparent" points="-4,4 -4,-169.8 306,-169.8 306,4 -4,4"/>
<text text-anchor="middle" x="151" y="-8.2" font-family="sans-serif" font-size="14.00">dependencies</text>
<g id="clust1" class="cluster">
<title>cluster_AppModule</title>
<polygon fill="none" stroke="black" stroke-dasharray="1,5" points="8,-32.8 8,-157.8 294,-157.8 294,-32.8 8,-32.8"/>
</g>
<g id="clust6" class="cluster">
<title>cluster_AppModule_providers</title>
<polygon fill="none" stroke="black" points="156,-40.8 156,-92.8 286,-92.8 286,-40.8 156,-40.8"/>
</g>
<g id="clust3" class="cluster">
<title>cluster_AppModule_imports</title>
<polygon fill="none" stroke="black" points="16,-40.8 16,-92.8 148,-92.8 148,-40.8 16,-40.8"/>
</g>
<!-- MovideskModule -->
<g id="node1" class="node">
<title>MovideskModule</title>
<polygon fill="#8dd3c7" stroke="black" points="139.55,-84.8 136.55,-88.8 115.55,-88.8 112.55,-84.8 24.45,-84.8 24.45,-48.8 139.55,-48.8 139.55,-84.8"/>
<text text-anchor="middle" x="82" y="-62.6" font-family="Times,serif" font-size="14.00">MovideskModule</text>
</g>
<!-- AppModule -->
<g id="node2" class="node">
<title>AppModule</title>
<polygon fill="#8dd3c7" stroke="black" points="192.66,-149.8 189.66,-153.8 168.66,-153.8 165.66,-149.8 109.34,-149.8 109.34,-113.8 192.66,-113.8 192.66,-149.8"/>
<text text-anchor="middle" x="151" y="-127.6" font-family="Times,serif" font-size="14.00">AppModule</text>
</g>
<!-- MovideskModule&#45;&gt;AppModule -->
<g id="edge1" class="edge">
<title>MovideskModule&#45;&gt;AppModule</title>
<path fill="none" stroke="black" d="M124.47,-84.91C124.47,-84.91 124.47,-103.79 124.47,-103.79"/>
<polygon fill="black" stroke="black" points="120.97,-103.79 124.47,-113.79 127.97,-103.79 120.97,-103.79"/>
</g>
<!-- AppService -->
<g id="node3" class="node">
<title>AppService</title>
<ellipse fill="#fdb462" stroke="black" cx="221" cy="-66.8" rx="56.75" ry="18"/>
<text text-anchor="middle" x="221" y="-62.6" font-family="Times,serif" font-size="14.00">AppService</text>
</g>
<!-- AppService&#45;&gt;AppModule -->
<g id="edge2" class="edge">
<title>AppService&#45;&gt;AppModule</title>
<path fill="none" stroke="black" d="M178.6,-79.03C178.6,-79.03 178.6,-103.48 178.6,-103.48"/>
<polygon fill="black" stroke="black" points="175.1,-103.48 178.6,-113.48 182.1,-103.48 175.1,-103.48"/>
</g>
</g>
</svg>
